<svg class="SocialIcons" xmlns="http://www.w3.org/2000/svg" x="0px" y="0px" width="242.942px" height="206.199px" viewBox="0 0 242.942 206.199">
	<g>
		<path d="M65.495,3.009c4.815,0,21.394,1.294,29.205,18.811c2.574,5.766,1.914,16.215,1.384,24.608
			c-0.081,1.332-0.163,2.623-0.229,3.855l-0.028,0.529l0.351,0.395c0.146,0.16,1.482,1.555,4.458,1.67l0.047,0.006l0.051-0.004
			c1.966-0.072,4.181-0.684,6.587-1.811c0.355-0.168,0.826-0.248,1.326-0.248c0.564,0,1.169,0.107,1.668,0.316l0.074,0.031
			c1.264,0.441,2.152,1.275,2.168,2.029c0.009,0.426-0.312,1.961-4.784,3.729c-0.437,0.172-1.01,0.355-1.677,0.564
			c-2.909,0.926-7.305,2.32-8.786,5.807c-0.831,1.963-0.605,4.279,0.679,6.885c0.526,1.232,8.833,19.939,27.52,23.02
			c-0.004,0.09-0.027,0.184-0.074,0.301c-0.318,0.746-2.332,3.322-14.862,5.258c-1.957,0.301-2.438,2.496-2.995,5.049
			c-0.203,0.918-0.405,1.838-0.687,2.793c-0.085,0.289-0.101,0.305-0.412,0.305c-0.04,0-0.091,0-0.146,0
			c-0.558,0-1.4-0.117-2.379-0.309c-1.778-0.348-4.211-0.771-7.319-0.771c-1.735,0-3.522,0.152-5.315,0.451
			c-3.833,0.637-6.953,2.844-10.257,5.176c-4.434,3.135-9.017,6.377-16.009,6.377c-0.304,0-0.604-0.008-0.905-0.023l-0.077-0.004
			l-0.078,0.004c-0.172,0.016-0.344,0.023-0.522,0.023c-6.989,0-11.575-3.242-16.005-6.377c-3.308-2.332-6.428-4.539-10.257-5.176
			c-1.794-0.299-3.58-0.451-5.319-0.451c-3.104,0-5.541,0.477-7.315,0.822c-0.979,0.191-1.825,0.355-2.379,0.355
			c-0.453,0-0.461-0.023-0.562-0.352c-0.281-0.955-0.483-1.902-0.687-2.816c-0.555-2.553-1.038-4.764-2.995-5.064
			C5.426,96.836,3.409,94.254,3.094,93.51c-0.051-0.115-0.074-0.219-0.078-0.303c18.688-3.078,26.99-21.789,27.521-23.025
			c1.284-2.602,1.51-4.92,0.676-6.885c-1.479-3.484-5.874-4.881-8.783-5.803c-0.667-0.213-1.24-0.396-1.677-0.568
			c-3.779-1.492-4.937-2.994-4.766-3.906c0.199-1.051,2.021-2.117,3.607-2.117c0.359,0,0.671,0.057,0.901,0.166
			c2.581,1.209,4.937,1.822,7.004,1.822c3.245,0,4.691-1.51,4.848-1.684l0.351-0.395l-0.028-0.525
			c-0.065-1.232-0.147-2.523-0.233-3.854c-0.522-8.395-1.186-18.836,1.389-24.604c7.784-17.45,24.28-18.795,29.151-18.795
			c0.121,0,2.233-0.023,2.233-0.023C65.296,3.011,65.396,3.009,65.495,3.009 M65.495,0H65.49c-0.109,0-0.219,0-0.315,0
			c-0.792,0.008-2.094,0.021-2.211,0.023c-2.851,0-8.557,0.402-14.69,3.108c-3.507,1.548-6.657,3.639-9.372,6.216
			c-3.236,3.071-5.873,6.858-7.83,11.254c-2.874,6.44-2.191,17.288-1.646,26.007l0.004,0.014c0.059,0.934,0.121,1.908,0.176,2.857
			c-0.422,0.193-1.104,0.398-2.109,0.398c-1.618,0-3.545-0.518-5.725-1.539c-0.645-0.299-1.374-0.449-2.182-0.449
			c-1.294,0-2.663,0.381-3.849,1.08c-1.493,0.875-2.453,2.113-2.718,3.486c-0.172,0.906-0.163,2.701,1.833,4.521
			c1.092,1.002,2.706,1.926,4.78,2.748c0.547,0.213,1.194,0.418,1.88,0.637c2.379,0.758,5.983,1.9,6.923,4.109
			c0.476,1.123,0.27,2.598-0.604,4.379c-0.024,0.047-0.048,0.098-0.071,0.145c-0.218,0.514-2.266,5.152-6.466,10.045
			c-2.387,2.781-5.015,5.105-7.808,6.91c-3.412,2.205-7.102,3.643-10.967,4.283c-1.521,0.25-2.604,1.598-2.519,3.139
			c0.023,0.441,0.129,0.881,0.312,1.311c0,0.004,0,0.004,0,0.008c0.616,1.436,2.039,2.656,4.353,3.732
			c2.827,1.314,7.059,2.418,12.565,3.279c0.28,0.531,0.569,1.865,0.772,2.773c0.21,0.971,0.429,1.965,0.736,3.021
			c0.34,1.146,1.21,2.516,3.448,2.516c0.846,0,1.824-0.191,2.951-0.408c1.658-0.324,3.924-0.768,6.747-0.768
			c1.564,0,3.189,0.139,4.82,0.408c3.151,0.527,5.865,2.441,9.008,4.664c4.595,3.248,9.801,6.93,17.753,6.93
			c0.219,0,0.433-0.008,0.646-0.023c0.266,0.012,0.59,0.023,0.933,0.023c7.956,0,13.158-3.682,17.748-6.93l0.008-0.008
			c3.144-2.215,5.854-4.129,9.005-4.656c1.63-0.27,3.253-0.408,4.819-0.408c2.699,0,4.836,0.342,6.743,0.717
			c1.244,0.244,2.215,0.361,2.956,0.361h0.071h0.078c1.637,0,2.838-0.896,3.299-2.473c0.304-1.031,0.521-2.008,0.736-2.99
			c0.188-0.854,0.487-2.223,0.765-2.758c5.519-0.865,9.742-1.969,12.574-3.283c2.305-1.068,3.727-2.289,4.344-3.717
			c0.188-0.428,0.297-0.873,0.318-1.326c0.088-1.537-0.998-2.889-2.518-3.139c-17.183-2.832-24.92-20.486-25.24-21.234
			c-0.023-0.051-0.047-0.102-0.07-0.148c-0.877-1.783-1.08-3.256-0.604-4.377c0.937-2.209,4.535-3.352,6.918-4.109
			c0.691-0.217,1.338-0.422,1.88-0.637c2.344-0.928,4.021-1.932,5.125-3.072c1.322-1.359,1.579-2.662,1.563-3.516
			c-0.04-2.063-1.618-3.895-4.126-4.793c-0.847-0.35-1.813-0.535-2.796-0.535c-0.671,0-1.666,0.094-2.602,0.529
			c-2.013,0.943-3.81,1.455-5.358,1.529c-0.823-0.041-1.396-0.221-1.771-0.391c0.046-0.805,0.098-1.631,0.151-2.494l0.024-0.367
			c0.55-8.725,1.232-19.581-1.639-26.024c-1.973-4.415-4.616-8.211-7.861-11.289c-2.726-2.58-5.89-4.669-9.407-6.216
			C74.063,0.402,68.353,0,65.495,0"/>
	</g>
	<g>
		<path d="M182.956,10.808c16.018,0,17.914,0.061,24.24,0.35c5.848,0.267,9.024,1.244,11.139,2.065
			c2.799,1.088,4.797,2.388,6.896,4.487c2.1,2.1,3.398,4.098,4.488,6.897c0.82,2.114,1.799,5.29,2.064,11.139
			c0.289,6.325,0.35,8.223,0.35,24.24c0,16.016-0.061,17.914-0.35,24.238c-0.266,5.848-1.244,9.025-2.064,11.139
			c-1.09,2.801-2.389,4.799-4.488,6.898c-2.1,2.098-4.098,3.398-6.896,4.486c-2.114,0.82-5.291,1.799-11.139,2.064
			c-6.324,0.289-8.221,0.352-24.24,0.352c-16.018,0-17.914-0.063-24.238-0.352c-5.848-0.266-9.024-1.244-11.139-2.064
			c-2.801-1.088-4.799-2.389-6.897-4.486c-2.099-2.1-3.399-4.098-4.487-6.898c-0.82-2.113-1.798-5.291-2.065-11.139
			c-0.288-6.324-0.349-8.223-0.349-24.238c0-16.018,0.061-17.915,0.349-24.24c0.268-5.849,1.245-9.025,2.065-11.139
			c1.088-2.8,2.389-4.798,4.487-6.897c2.099-2.099,4.097-3.398,6.897-4.487c2.114-0.821,5.291-1.798,11.139-2.065
			C165.042,10.869,166.94,10.808,182.956,10.808 M182.956,0c-16.291,0-18.334,0.069-24.73,0.361
			c-6.385,0.292-10.746,1.305-14.561,2.788c-3.945,1.533-7.291,3.584-10.626,6.919s-5.385,6.68-6.918,10.625
			c-1.483,3.816-2.498,8.176-2.789,14.562c-0.292,6.397-0.361,8.44-0.361,24.732c0,16.291,0.069,18.332,0.361,24.73
			c0.291,6.385,1.305,10.746,2.789,14.563c1.533,3.943,3.583,7.289,6.918,10.623c3.335,3.336,6.681,5.387,10.626,6.92
			c3.814,1.482,8.176,2.496,14.561,2.789c6.396,0.291,8.439,0.359,24.73,0.359s18.334-0.068,24.732-0.359
			c6.385-0.293,10.745-1.307,14.561-2.789c3.945-1.533,7.291-3.584,10.625-6.92c3.334-3.334,5.387-6.68,6.92-10.623
			c1.482-3.816,2.496-8.178,2.787-14.563c0.293-6.398,0.361-8.439,0.361-24.73c0-16.292-0.068-18.335-0.361-24.732
			c-0.291-6.385-1.305-10.746-2.787-14.562c-1.533-3.944-3.586-7.29-6.92-10.625s-6.68-5.386-10.625-6.919
			c-3.815-1.483-8.176-2.497-14.561-2.788C201.29,0.069,199.247,0,182.956,0L182.956,0L182.956,0z"/>
		<path d="M182.956,29.182c-17.012,0-30.803,13.791-30.803,30.804c0,17.012,13.791,30.803,30.803,30.803
			c17.014,0,30.805-13.791,30.805-30.803C213.76,42.973,199.969,29.182,182.956,29.182L182.956,29.182z M182.956,79.98
			c-11.042,0-19.994-8.953-19.994-19.994c0-11.043,8.952-19.996,19.994-19.996c11.044,0,19.996,8.953,19.996,19.996
			C202.952,71.027,194,79.98,182.956,79.98L182.956,79.98z"/>
		<path d="M222.176,27.965c0,3.976-3.224,7.198-7.199,7.198c-3.977,0-7.199-3.223-7.199-7.198s3.223-7.198,7.199-7.198
			C218.953,20.767,222.176,23.989,222.176,27.965L222.176,27.965z"/>
	</g>
	<g>
		<path id="path22_1_" d="M197.429,100.939c-5.402,2.398-11.213,4.019-17.309,4.748c6.223-3.732,10.998-9.639,13.248-16.676
			c-5.822,3.457-12.27,5.963-19.139,7.314c-5.496-5.856-13.33-9.518-21.998-9.518c-16.648,0-30.14,13.494-30.14,30.139
			c0,2.364,0.265,4.664,0.782,6.869c-25.052-1.256-47.261-13.258-62.126-31.49c-2.594,4.448-4.08,9.626-4.08,15.149
			c0,10.459,5.318,19.682,13.407,25.09c-4.94-0.155-9.588-1.512-13.652-3.771c-0.005,0.127-0.005,0.252-0.005,0.379
			c0,14.605,10.392,26.784,24.179,29.555c-2.527,0.688-5.19,1.054-7.938,1.054c-1.944,0-3.829-0.185-5.672-0.538
			c3.837,11.975,14.965,20.689,28.158,20.934c-10.325,8.084-23.319,12.902-37.44,12.902c-2.432,0-4.832-0.145-7.192-0.422
			c13.344,8.552,29.185,13.541,46.208,13.541c55.438,0,85.75-45.926,85.75-85.758c0-1.306-0.031-2.604-0.086-3.896
			c5.887-4.252,10.996-9.56,15.041-15.605"/>
	</g>
</svg>
