<svg class="Icon Icon-tweetRetweet" xmlns="http://www.w3.org/2000/svg" x="0px" y="0px" width="335.639px" height="267.29px" viewBox="0 0 335.639 267.29">
<path d="M334.516,199.95c-1.78-3.5-5.381-5.73-9.311-5.73h-24.63v-55.63c0-7.68-5.94-14.37-13.63-14.37h-51.71
	c-0.05,0.15-0.12,0.31-0.18,0.46c-3.9,9.51-8.69,18.76-14.38,27.54h48.88c1.92,0,3.02,1.84,3.02,3.76v38.24h-23.89
	c-3.93,0-7.53,2.23-9.31,5.73c-1.77,3.51-1.43,7.73,0.9,10.89l38.26,52.18c1.97,2.68,5.09,4.27,8.41,4.27s6.45-1.59,8.42-4.27
	l38.26-52.18C335.945,207.67,336.285,203.46,334.516,199.95z M195.365,182.89c-5.9,5.52-12.29,10.33-19.16,15.33h9.87
	c3.93,0,7.54-2.46,9.31-5.97C196.915,189.24,196.875,185.84,195.365,182.89z M227.825,239.22h-62.62c-1.87,0-3.37-1.37-3.45-3.22
	l-0.19-29.78c-8.65,4.49-17.99,8.27-27.99,11.13v0.28l0.2,35.7c0.01,7.68,6.41,13.89,14.09,13.89h79.96c7.68,0,13.91-6.32,13.91-14
	S235.505,239.22,227.825,239.22z"/>
<g>
	<path d="M161.575,198.22h14.63c-4.61,3-9.63,5.45-14.63,8.06V198.22z"/>
	<path d="M247.355,55.76c0.1,2.42,0.16,4.86,0.16,7.31c0,20.2-4.16,41.22-12.28,61.15h-28.29c-7.68,0-13.91,6.31-13.91,14
		s6.23,14,13.91,14h13.73c-0.06,0.1-0.13,0.19-0.19,0.29c-7.04,10.84-15.43,20.98-25.12,30.01c-0.25-0.48-0.54-0.95-0.87-1.4
		l-38.26-52.17c-1.97-2.69-5.09-4.27-8.42-4.27c-3.32,0-6.44,1.58-8.41,4.27l-38.26,52.17c-2.32,3.17-2.67,7.63-0.89,11.13
		c1.77,3.51,5.37,5.97,9.3,5.97h24.35l-0.33,19.13v0.28c-14,4.18-30.01,6.36-47.02,6.36c-31.92,0-61.535-9.41-86.555-25.45
		c4.42,0.52,8.963,0.76,13.523,0.76c26.48,0,50.871-9.04,70.231-24.2c-24.74-0.46-45.6-16.81-52.79-39.26
		c3.45,0.66,6.996,1,10.635,1c5.16,0,10.153-0.69,14.893-1.98c-25.85-5.19-45.339-28.03-45.339-55.42c0-0.24,0.001-0.47,0.011-0.71
		c7.62,4.24,16.34,6.78,25.6,7.07c-15.17-10.14-25.14-27.43-25.14-47.05c0-10.35,2.79-20.06,7.65-28.4
		c27.87,34.19,69.52,56.69,116.49,59.05c-0.97-4.14-1.46-8.45-1.46-12.88c0-31.22,25.3-56.52,56.51-56.52
		c16.26,0,30.95,6.87,41.25,17.85c12.88-2.54,24.97-7.23,35.89-13.72c-4.22,13.2-13.17,24.27-24.84,31.27
		c11.43-1.37,22.32-4.4,32.45-8.9C267.976,37.84,258.396,47.79,247.355,55.76z"/>
</g>
</svg>
