<svg class="Icon Icon-tweet" xmlns="http://www.w3.org/2000/svg" x="0px" y="0px" width="146.917px" height="119.391px" viewBox="226.237 240.28 146.917 119.391">
<g>
	<path id="path22_1_" d="M373.154,254.41c-5.402,2.398-11.213,4.019-17.309,4.748c6.223-3.732,10.998-9.639,13.248-16.676
		c-5.822,3.457-12.27,5.963-19.139,7.314c-5.496-5.856-13.33-9.518-21.998-9.518c-16.648,0-30.14,13.494-30.14,30.139
		c0,2.364,0.265,4.664,0.782,6.869c-25.052-1.256-47.261-13.258-62.126-31.49c-2.594,4.448-4.08,9.626-4.08,15.149
		c0,10.459,5.318,19.682,13.407,25.09c-4.94-0.155-9.588-1.512-13.652-3.771c-0.005,0.127-0.005,0.252-0.005,0.379
		c0,14.605,10.392,26.784,24.179,29.555c-2.527,0.688-5.19,1.054-7.938,1.054c-1.944,0-3.829-0.185-5.672-0.538
		c3.837,11.975,14.965,20.689,28.158,20.934c-10.325,8.084-23.319,12.902-37.44,12.902c-2.432,0-4.832-0.145-7.192-0.422
		c13.344,8.552,29.185,13.541,46.208,13.541c55.438,0,85.75-45.926,85.75-85.758c0-1.306-0.031-2.604-0.086-3.896
		c5.887-4.252,10.996-9.56,15.041-15.605"/>
</g>
</svg>
