<svg class="Logo" xmlns="http://www.w3.org/2000/svg" x="0px" y="0px" width="586.928px" height="90.968px" viewBox="0 0 586.928 90.968">
  <g class="Logo-charlie">
    <path d="M395.072,62.761c-10.391,0-18.82-8.431-18.82-18.83c0-10.4,8.43-18.82,18.82-18.82
      c5.209,0,9.93,2.109,13.33,5.529l2.699-2.699c-4.1-4.11-9.77-6.65-16.029-6.65c-12.5,0-22.641,10.141-22.641,22.641
      c0,12.51,10.141,22.64,22.641,22.64c6.25,0,11.9-2.521,15.99-6.61l-2.691-2.689C404.961,60.66,400.262,62.761,395.072,62.761z"/>
    <path d="M304.412,23.498v44.83c0,12.51-10.131,22.64-22.641,22.64v-3.81c10.4,0,18.83-8.43,18.83-18.83v-44.83
      H304.412z"/>
    <path d="M449.572,63.49l-2.59,2.59h-0.031l-16.039-16.04c-0.211-0.22-0.441-0.43-0.67-0.63
      c-1.191-1.04-2.51-1.87-3.98-2.47v19.63h-3.791V0h3.791v40.75c1.471-0.601,2.789-1.42,3.98-2.47c0.398-0.35,0.779-0.721,1.119-1.11
      c0.041-0.04,0.08-0.079,0.109-0.13l6.48-6.48l8.141-8.14h0.039l2.58,2.58l-14.76,14.761l-0.01-0.011c-0.471,0.53-1,1.03-1.57,1.5
      c-1.26,1.05-2.67,1.91-4.219,2.591c1.549,0.67,2.959,1.529,4.219,2.579c0.391,0.33,0.77,0.671,1.121,1.03l0.02-0.02L449.572,63.49z
      "/>
    <path d="M517.379,21.291c-12.5,0-22.639,10.139-22.639,22.639c0,12.51,10.139,22.641,22.639,22.641
      c12.51,0,22.641-10.131,22.641-22.641C540.02,31.43,529.889,21.291,517.379,21.291z M517.379,62.76
      c-10.389,0-18.82-8.43-18.82-18.83c0-10.398,8.432-18.82,18.82-18.82c10.4,0,18.83,8.422,18.83,18.82
      C536.209,54.33,527.779,62.76,517.379,62.76z"/>
    <path d="M586.928,41.871V66.57h-3.699V40.701c0-4.361-1.24-7.951-3.701-10.74c-2.59-2.951-6.039-4.43-10.34-4.43
      h-0.059c-4.301,0-7.75,1.479-10.342,4.43c-2.459,2.789-3.699,6.379-3.699,10.74V66.57h-3.699V41.871
      c0-5.83,1.479-10.51,4.42-14.041c3.17-3.82,7.609-5.73,13.32-5.73h0.059c5.711,0,10.15,1.91,13.32,5.73
      C585.447,31.361,586.928,36.041,586.928,41.871z"/>
    <path d="M482.811,54.701c0,3.818-1.301,6.818-3.859,8.949c-0.201,0.17-0.42,0.34-0.641,0.49
      c-2.07,1.49-4.689,2.311-7.779,2.43h-0.061c-3.1-0.119-5.721-0.939-7.791-2.439c-0.199-0.131-0.408-0.301-0.619-0.471
      c-0.18-0.15-0.34-0.289-0.5-0.439l-0.619-0.57l2.77-2.77l0.57,0.57c0.029,0.039,0.068,0.068,0.109,0.1
      c1.58,1.389,3.6,2.1,6.039,2.129h0.15c2.43-0.029,4.451-0.74,6-2.109c1.68-1.471,2.49-3.369,2.49-5.84
      c0-2.49-0.811-4.41-2.49-5.881c-1.199-1.049-2.67-1.719-4.379-1.979h-0.051c-0.16-0.021-0.27-0.041-0.379-0.061
      c-0.891-0.121-1.781-0.33-2.592-0.609c-1.158-0.391-2.238-0.941-3.189-1.641c-0.209-0.141-0.43-0.311-0.629-0.48
      c-2.561-2.119-3.861-5.119-3.861-8.91c0-3.83,1.301-6.83,3.861-8.949c0.199-0.17,0.43-0.35,0.639-0.5
      c2.07-1.49,4.691-2.311,7.781-2.42c3.16,0.109,5.779,0.93,7.85,2.43c0.199,0.141,0.42,0.311,0.629,0.48
      c0.17,0.139,0.34,0.289,0.5,0.439l0.611,0.561l-2.76,2.77l-0.57-0.561c-0.051-0.059-0.08-0.08-0.111-0.109
      c-1.59-1.391-3.609-2.1-6.049-2.131h-0.141c-2.43,0.031-4.459,0.74-6.01,2.111c-1.68,1.469-2.49,3.379-2.49,5.84
      c0,2.5,0.811,4.41,2.49,5.889c1.199,1.051,2.68,1.711,4.41,1.971l0.131,0.02c0.068,0.01,0.148,0.021,0.229,0.031
      c0.91,0.129,1.791,0.34,2.631,0.619c1.18,0.4,2.25,0.951,3.199,1.641c0.201,0.139,0.42,0.311,0.621,0.48
      C481.51,47.91,482.811,50.9,482.811,54.701z"/>
    <path d="M338.422,21.29c-12.5,0-22.641,10.141-22.641,22.641c0,12.51,10.141,22.64,22.641,22.64
      c7.871,0,14.791-4.01,18.85-10.09v9.271h3.791v-21.82C361.063,31.431,350.932,21.29,338.422,21.29z M338.422,62.761
      c-10.391,0-18.82-8.431-18.82-18.83c0-10.4,8.43-18.82,18.82-18.82c10.4,0,18.83,8.42,18.83,18.82
      C357.252,54.33,348.822,62.761,338.422,62.761z"/>
  </g>
  <g class="Logo-jackson">
    <path d="M86.43,41.431v25.14h-3.701v-25.89c0-4.221-1.129-7.73-3.389-10.531c-2.43-3.049-5.711-4.569-9.83-4.569
      c-4.73,0-8.451,1.74-11.16,5.2c-2.49,3.16-3.74,7.17-3.74,12.02V66.57h-3.711V0.5h3.711v30.181c3.52-5.771,8.48-8.66,14.9-8.66
      c5.561,0,9.83,1.89,12.811,5.68C85.059,31.16,86.43,35.74,86.43,41.431z"/>
    <path d="M202.543,66.57h-3.793V21.696h3.793V66.57z"/>
    <path d="M187.381,66.57h-3.793V0.497h3.793V66.57z"/>
    <path d="M120.439,21.29c-12.5,0-22.641,10.141-22.641,22.641c0,12.51,10.141,22.64,22.641,22.64
      c7.871,0,14.791-4.01,18.85-10.09v9.271h3.791v-21.82C143.08,31.431,132.949,21.29,120.439,21.29z M120.439,62.761
      c-10.391,0-18.82-8.431-18.82-18.83c0-10.4,8.43-18.82,18.82-18.82c10.4,0,18.83,8.42,18.83,18.82
      C139.27,54.33,130.84,62.761,120.439,62.761z"/>
    <path d="M259.191,43.93c0-12.5-10.129-22.639-22.639-22.639c-12.5,0-22.641,10.139-22.641,22.639
      c0,12.511,10.141,22.641,22.641,22.641v-0.029c6.109-0.08,11.629-2.58,15.648-6.601l-2.689-2.69
      c-3.41,3.391-8.109,5.49-13.299,5.49v0.01c-9.621-0.16-17.471-7.55-18.391-16.97h41.289
      C259.162,45.17,259.191,44.551,259.191,43.93z M217.822,42.08c0.93-9.529,8.959-16.97,18.73-16.97c9.779,0,17.809,7.44,18.74,16.97
      H217.822z"/>
    <path d="M172.219,22.1v3.432h-0.029c-4.301,0-7.75,1.479-10.34,4.43c-2.461,2.789-3.699,6.379-3.699,10.74V66.57
      h-3.701V41.871c0-5.83,1.48-10.51,4.42-14.041c3.17-3.82,7.611-5.73,13.32-5.73H172.219z"/>
    <path d="M22.641,62.761c-10.391,0-18.82-8.431-18.82-18.83c0-10.4,8.43-18.82,18.82-18.82
      c5.209,0,9.93,2.109,13.33,5.529l2.699-2.699c-4.1-4.11-9.77-6.65-16.029-6.65C10.141,21.29,0,31.431,0,43.931
      c0,12.51,10.141,22.64,22.641,22.64c6.25,0,11.9-2.521,15.99-6.61l-2.691-2.689C32.529,60.66,27.83,62.761,22.641,62.761z"/>
  </g>
</svg>